<?xml version="1.0" encoding="utf-8"?>
<!-- Generator: Adobe Illustrator 28.0.0, SVG Export Plug-In . SVG Version: 6.00 Build 0)  -->
<svg version="1.1" id="Слой_1" xmlns:xodm="http://www.corel.com/coreldraw/odm/2003"
	 xmlns="http://www.w3.org/2000/svg" xmlns:xlink="http://www.w3.org/1999/xlink" x="0px" y="0px" viewBox="0 0 2227 1067.2"
	 style="enable-background:new 0 0 2227 1067.2;" xml:space="preserve">
<style type="text/css">
	.st0{fill-rule:evenodd;clip-rule:evenodd;fill:#FFFDFD;}
	.st1{fill:#FFFDFD;}
</style>
<g id="Слой_x0020_1">
	<path class="st0" d="M1542.3,474c-13.6-10.1-16.3-13.1-24.5-29.2l59.8-60.5c1.4,0,1.4-1,2.7-2c28.6-24.2,61.2-65.6,78.9-70.6
		c5.4,20.2,62.6,65.6,85.7,89.8c2.7,3,6.8,6.1,10.9,9.1l61.2,63.5c-20.4-5-43.5-8.1-63.9-15.1c-20.4-8.1-35.4-17.1-55.8-22.2
		l-36.7,34.3c-16.3-14.1-25.8-23.2-43.5-34.3c-15,3-24.5,10.1-36.7,17.2C1570.9,459.9,1553.2,471,1542.3,474L1542.3,474z
		 M414.5,478.1c13.6-21.2,59.8-62.5,81.6-83.7c16.3-16.1,28.6-24.2,43.5-39.3s27.2-31.3,44.9-43.4c5.4,4,130.6,125.1,133.3,129.1
		L693.4,467c-28.6-8.1-44.9-28.2-66.7-34.3c-19,12.1-35.4,27.2-54.4,37.3c-9.5-14.1-20.4-28.2-34-37.3
		C500.2,452.9,469,474,414.5,478.1L414.5,478.1z M913.8,287.5c2.7-13.1,106.1-124,121.1-140.2l53.1-56.5
		c10.9-14.1,10.9-18.2,25.8-28.2c21.8,15.1,81.6,87.7,104.7,110.9l103.4,114L1176.3,233c-15,0-46.2,34.3-74.8,49.4
		c-15-10.1-29.9-42.4-46.2-53.4c-15,3-20.4,9.1-35.4,15.1L913.8,287.5L913.8,287.5z M991.3,814.9c-5.4-54.5,58.5-135.1,83-164.4
		c16.3-18.2,8.2-14.1,28.6-33.3c27.2-22.2,42.2-47.4,97.9-83.7c-43.5,10.1-95.2,52.4-119.7,73.6l-83,109.9c0,0,0,2-1.4,3
		c-25.8-38.3-28.6-97.8-8.2-142.2c15-35.3,49-67.6,85.7-89.7c73.5-44.4,125.2-45.4,198.6-62.5c21.8-5,49-14.1,69.4-15.1
		c6.8,126.1-46.2,280.4-167.3,336.8c-59.8,27.2-107.5,9.1-145.6,6.1l-10.9,61.5l1202.6,4c-1.4-24.2-47.6-54.4-65.3-71.6l-87.1-87.7
		c-59.9-51.4-106.1-101.9-163.2-157.3c-13.6-14.1-23.1-19.2-36.7-33.3c-40.8-41.3-81.6-83.7-125.2-121c-6.8-6.1-12.2-11.1-19.1-18.2
		c-15-15.1-57.1-63.5-73.5-67.6c-38.1,25.2-134.7,142.2-167.3,149.2c-5.4-20.2-205.4-229.9-228.6-258.2c-8.2-10.1-15-15.1-23.1-25.2
		L1160,49.5c-16.3-16.1-27.2-42.3-50.3-49.4c-2.7,10.1-34,44.4-43.5,53.5L815.8,330.8c-10.9,13.1-13.6,14.1-24.5,26.2l-44.9,54.4
		c-19-13.1-47.6-46.4-59.9-56.5c-34-29.2-78.9-81.7-102-96.8L190.1,637.4c-2.7,4-4.1,5-8.2,8.1L81.2,745.3
		c-13.6,13.1-21.8,18.2-35.4,31.3c-58.5,56.5-32.6,38.3,9.5,38.3L991.3,814.9L991.3,814.9z"/>
	<path class="st0" d="M991.3,814.9h27.2l10.9-61.5c38.1,3,85.7,21.2,145.6-6.1c121.1-56.5,174.1-210.8,167.3-336.8
		c-20.4,1-47.6,10.1-69.4,15.1c-73.5,17.1-125.2,18.2-198.6,62.5c-36.7,22.2-70.7,54.4-85.7,89.7c-20.4,44.4-17.7,103.9,8.2,142.2
		c1.4-1,1.4-3,1.4-3l83-109.9c24.5-21.2,76.2-63.5,119.7-73.6c-55.8,36.3-70.7,61.5-97.9,83.7c-20.4,19.2-12.2,15.1-28.6,33.3
		C1049.8,679.8,985.9,760.4,991.3,814.9L991.3,814.9z"/>
	<path class="st0" d="M22.8,856.3H2213c12.2,0,12.2-5,12.2-16.1H10.5C10.5,851.2,9.1,856.3,22.8,856.3L22.8,856.3z"/>
	<path class="st1" d="M162,1007h-53.7l-9.3,21.7c-2.3,5.4-3.5,9.4-3.5,12.1c0,2.1,1,4,3,5.6c2,1.6,6.3,2.6,13,3.1v3.8H67.9v-3.8
		c5.8-1,9.5-2.3,11.2-4c3.5-3.3,7.3-9.9,11.5-19.9l48.8-114.2h3.4l48.2,115.4c3.9,9.3,7.4,15.3,10.6,18.1c3.2,2.8,7.6,4.3,13.2,4.6
		v3.8h-54.7v-3.8c5.5-0.3,9.2-1.2,11.2-2.8c2-1.6,2.9-3.5,2.9-5.8c0-3-1.4-7.7-4.1-14.2L162,1007L162,1007z M158.9,999.5l-23.4-56
		l-24,56H158.9L158.9,999.5z M315.6,922.1h-42.9v38.9c0,39.3-3.4,64.7-10.1,76.4c-6.8,11.7-16,17.5-27.9,17.5c-5.1,0-9-1.2-11.7-3.7
		c-2.7-2.5-4.1-5.4-4.1-8.7c0-2.6,0.9-4.7,2.6-6.6s3.9-2.8,6.5-2.8c2.1,0,4.5,1,7.2,3.1c3.1,2.3,5.8,3.4,8.3,3.4
		c5.9,0,10.7-4.9,14.5-14.8c3.7-9.9,5.6-28.5,5.6-56v-29c0-9.1-1.2-14.9-3.6-17.4c-2.4-2.4-7.9-3.8-16.5-4.1v-3.8h111.5v3.8
		c-8.5,0.3-14,1.6-16.3,4.1c-2.4,2.4-3.5,8.3-3.5,17.4v88.1c0,9.2,1.2,15,3.5,17.4c2.4,2.5,7.8,3.8,16.3,4.1v3.8h-59.4v-3.8
		c8.5-0.3,14-1.6,16.3-4.1c2.4-2.4,3.5-8.3,3.5-17.4V922.1z M402.4,976.9h5.5c17,0,29.4,1.1,37.4,3.2c8,2.1,14.4,6.2,19.5,12.3
		c5,6.1,7.5,13.4,7.5,21.9c0,10.3-3.8,19.4-11.4,27.2c-7.6,7.8-20.7,11.7-39.4,11.7h-58.6v-3.8c8.5-0.3,13.9-1.6,16.3-4.1
		c2.4-2.4,3.6-8.3,3.6-17.4v-88.1c0-9.2-1.2-15-3.6-17.4c-2.4-2.5-7.8-3.8-16.3-4.1v-3.8h59.4v3.8c-8.5,0.3-13.9,1.6-16.3,4.1
		c-2.4,2.4-3.6,8.3-3.6,17.4L402.4,976.9L402.4,976.9z M402.4,1044.9c6,0.9,10.7,1.4,14,1.4c8.4,0,15.9-2.8,22.7-8.4
		c6.8-5.6,10.2-13.3,10.2-23.2c0-10.2-3.5-17.8-10.6-22.7c-7.1-4.9-16.1-7.4-27-7.4c-3,0-6.1,0.3-9.3,0.8L402.4,1044.9L402.4,1044.9
		z M586.8,922.1h-64v105.9c0,9.2,1.2,15,3.5,17.4c2.3,2.5,7.8,3.8,16.4,4.1v3.8h-59.4v-3.8c8.5-0.3,14-1.6,16.3-4.1
		c2.4-2.4,3.5-8.3,3.5-17.4v-88.1c0-9.2-1.2-15-3.5-17.4c-2.4-2.5-7.8-3.8-16.3-4.1v-3.8h143.1v3.8c-8.5,0.3-14,1.6-16.3,4.1
		c-2.4,2.4-3.6,8.3-3.6,17.4v88.1c0,9.2,1.2,15,3.6,17.4c2.4,2.5,7.8,3.8,16.3,4.1v3.8h-59.4v-3.8c8.5-0.3,13.9-1.6,16.3-4
		c2.4-2.4,3.6-8.3,3.6-17.5L586.8,922.1L586.8,922.1z M737.8,937.3c0-8.3-1.3-13.5-4-15.7c-2.7-2.2-8.1-3.3-16.3-3.3v-3.8h59.8v3.8
		c-8.5,0.3-13.9,1.6-16.3,4.1c-2.4,2.4-3.6,8.3-3.6,17.4v88.1c0,9.2,1.2,15,3.6,17.4c2.4,2.5,7.8,3.8,16.3,4.1v3.8h-59.8v-3.8
		c8.8-0.3,14.3-1.7,16.7-4.2c2.4-2.5,3.6-8.3,3.6-17.4v-79.7l-64,82.6c0.1,5.9,0.5,9.9,1.2,11.9c0.7,2,2.4,3.6,5,4.7
		c2.6,1.2,7.2,1.8,13.9,1.9v3.8h-59.6v-3.8c8.5-0.3,13.9-1.6,16.3-4.1c2.4-2.4,3.5-8.3,3.5-17.4v-88.1c0-9.2-1.2-15-3.5-17.4
		c-2.4-2.5-7.8-3.8-16.3-4.1v-3.8h59.6v3.8c-8.7,0.3-14.1,1.6-16.5,4.1c-2.4,2.4-3.5,8.3-3.5,17.4v79.9L737.8,937.3L737.8,937.3z
		 M888.3,868.9c2.1,0,3.9,0.9,5.4,2.7c1.5,1.8,2.3,3.9,2.3,6.4c0,6-3.1,11.2-9.4,15.6c-6.2,4.4-16.1,6.5-29.7,6.5
		c-13.6,0-23.6-2.2-29.8-6.5c-6.2-4.3-9.3-9.6-9.3-15.6c0-2.4,0.7-4.5,2.2-6.3c1.5-1.8,3.4-2.8,5.6-2.8c2.2,0,4.1,0.9,5.8,2.6
		c1.6,1.7,3.9,5.6,6.8,11.5c4.1,8.4,10.3,12.7,18.8,12.7c8.4,0,14.6-4.2,18.8-12.7c2.8-6,5-9.9,6.6-11.6
		C883.8,869.8,885.8,868.9,888.3,868.9L888.3,868.9z M888.9,937.3c0-8.3-1.3-13.5-4-15.7c-2.7-2.2-8.1-3.3-16.3-3.3v-3.8h59.8v3.8
		c-8.5,0.3-14,1.6-16.3,4.1c-2.4,2.4-3.5,8.3-3.5,17.4v88.1c0,9.2,1.2,15,3.5,17.4c2.4,2.5,7.8,3.8,16.3,4.1v3.8h-59.8v-3.8
		c8.8-0.3,14.3-1.7,16.7-4.2c2.4-2.5,3.5-8.3,3.5-17.4v-79.7l-64,82.6c0.1,5.9,0.5,9.9,1.2,11.9c0.7,2,2.4,3.6,5,4.7
		c2.6,1.2,7.3,1.8,13.9,1.9v3.8h-59.6v-3.8c8.5-0.3,13.9-1.6,16.3-4.1c2.4-2.4,3.6-8.3,3.6-17.4v-88.1c0-9.2-1.2-15-3.6-17.4
		c-2.4-2.5-7.8-3.8-16.3-4.1v-3.8H845v3.8c-8.7,0.3-14.1,1.6-16.5,4.1c-2.4,2.4-3.6,8.3-3.6,17.4v79.9L888.9,937.3L888.9,937.3z
		 M1058.4,911.4l3.1,47.1h-3.1c-4.2-14.1-10.2-24.3-18-30.4c-7.8-6.2-17.2-9.3-28.1-9.3c-9.1,0-17.4,2.3-24.8,7
		s-13.2,12.1-17.5,22.3c-4.2,10.2-6.3,22.9-6.3,38.1c0,12.6,2,23.4,6,32.6c4,9.2,10,16.3,18.1,21.2c8.1,4.9,17.2,7.4,27.5,7.4
		c9,0,16.9-1.9,23.7-5.8c6.9-3.8,14.4-11.5,22.6-22.9l3.2,2.1c-6.9,12.3-15,21.3-24.3,27c-9.2,5.7-20.2,8.6-32.9,8.6
		c-22.9,0-40.7-8.5-53.2-25.6c-9.4-12.7-14.1-27.6-14.1-44.8c0-13.8,3.1-26.6,9.3-38.1c6.2-11.6,14.7-20.6,25.5-26.9
		c10.8-6.4,22.7-9.6,35.5-9.6c10,0,19.8,2.4,29.5,7.4c2.8,1.5,4.9,2.3,6.1,2.3c1.8,0,3.4-0.7,4.8-1.9c1.8-1.8,3-4.4,3.8-7.7
		L1058.4,911.4L1058.4,911.4z M1210.7,1049.4v3.8H1175c-3.9-6.2-12-17.9-24.5-35.2c-12.4-17.2-20-26.8-22.7-28.7
		c-2.7-1.9-6.8-2.9-12.3-2.9v41.4c0,9.2,1.2,15,3.5,17.4c2.3,2.5,7.8,3.8,16.4,4.1v3.8H1076v-3.8c8.4-0.3,13.9-1.6,16.3-4
		c2.4-2.4,3.6-8.3,3.6-17.5v-88.1c0-9.2-1.2-15-3.6-17.4c-2.4-2.5-7.8-3.8-16.3-4.1v-3.8h59.4v3.8c-8.6,0.3-14.1,1.6-16.4,4.1
		c-2.3,2.4-3.5,8.3-3.5,17.4v38.7c7.4-0.1,12.6-0.6,15.4-1.5c2.9-0.9,6.1-3,9.6-6.3c3.6-3.3,6.4-6.8,8.5-10.6c2.1-3.8,4.7-10,8-18.7
		c3.1-8.1,5.6-13.8,7.5-16.9c2-3.2,5.1-5.9,9.3-8.2c4.3-2.3,9.4-3.4,15.3-3.4c10.5,0,15.7,3.7,15.7,11.1c0,2.6-1.1,4.8-3.1,6.8
		c-2.1,1.9-4.4,2.9-7.1,2.9c-1.9,0-5.1-1.1-9.6-3.3c-3.9-2-6.7-3-8.3-3c-2.2,0-4,1.2-5.6,3.4c-1.6,2.3-4.1,8.1-7.5,17.5
		c-6.5,17.5-14.9,28.6-25,33.3c6.2,1.1,14.7,9.6,25.7,25.4c11.6,16.8,20.2,28.1,25.6,33.8S1202.4,1049.2,1210.7,1049.4
		L1210.7,1049.4z M1319,937.3c0-8.3-1.3-13.5-4-15.7c-2.7-2.2-8.1-3.3-16.3-3.3v-3.8h59.8v3.8c-8.5,0.3-13.9,1.6-16.3,4.1
		c-2.4,2.4-3.6,8.3-3.6,17.4v88.1c0,9.2,1.2,15,3.6,17.4c2.4,2.5,7.8,3.8,16.3,4.1v3.8h-59.8v-3.8c8.8-0.3,14.3-1.7,16.7-4.2
		c2.4-2.5,3.6-8.3,3.6-17.4v-79.7l-64,82.6c0.1,5.9,0.4,9.9,1.2,11.9c0.7,2,2.4,3.6,5,4.7c2.6,1.2,7.2,1.8,13.9,1.9v3.8h-59.6v-3.8
		c8.5-0.3,13.9-1.6,16.3-4.1c2.4-2.4,3.6-8.3,3.6-17.4v-88.1c0-9.2-1.2-15-3.6-17.4c-2.4-2.5-7.8-3.8-16.3-4.1v-3.8h59.6v3.8
		c-8.7,0.3-14.1,1.6-16.5,4.1c-2.4,2.4-3.6,8.3-3.6,17.4v79.9L1319,937.3z M1406.3,922.1v54.8h30.5c7.9,0,13.2-1.2,15.8-3.6
		c3.6-3.1,5.5-8.7,5.9-16.5h3.8v48.3h-3.8c-0.9-6.8-1.9-11.1-2.9-13c-1.2-2.4-3.2-4.3-6-5.6s-7.1-2.1-12.9-2.1h-30.5v45.7
		c0,6.1,0.3,9.9,0.8,11.2c0.6,1.3,1.5,2.4,2.9,3.2c1.4,0.8,4,1.2,7.8,1.2h23.5c7.8,0,13.5-0.6,17.1-1.6c3.5-1.1,6.9-3.2,10.2-6.4
		c4.2-4.2,8.5-10.6,13-19.1h4.2l-11.9,34.7h-106.9v-3.8h4.9c3.3,0,6.4-0.8,9.3-2.4c2.2-1.1,3.7-2.7,4.5-4.9
		c0.8-2.2,1.2-6.7,1.2-13.4v-90.2c0-8.8-0.9-14.2-2.7-16.2c-2.5-2.7-6.6-4.1-12.3-4.1h-4.9v-3.8h106.9l1.5,30.5h-4
		c-1.4-7.4-3-12.4-4.7-15.2c-1.8-2.8-4.3-4.8-7.7-6.3c-2.7-1-7.5-1.5-14.4-1.5L1406.3,922.1L1406.3,922.1z M1641,922.1h-42.9v38.9
		c0,39.3-3.4,64.7-10.1,76.4c-6.8,11.7-16,17.5-27.9,17.5c-5.1,0-9-1.2-11.7-3.7c-2.7-2.5-4.1-5.4-4.1-8.7c0-2.6,0.9-4.7,2.7-6.6
		s3.9-2.8,6.4-2.8c2.1,0,4.5,1,7.2,3.1c3.1,2.3,5.8,3.4,8.3,3.4c5.9,0,10.7-4.9,14.5-14.8c3.7-9.9,5.6-28.5,5.6-56v-29
		c0-9.1-1.2-14.9-3.6-17.4c-2.4-2.4-7.9-3.8-16.5-4.1v-3.8h111.5v3.8c-8.5,0.3-13.9,1.6-16.3,4.1c-2.4,2.4-3.6,8.3-3.6,17.4v88.1
		c0,9.2,1.2,15,3.6,17.4c2.4,2.5,7.8,3.8,16.3,4.1v3.8h-59.4v-3.8c8.5-0.3,13.9-1.6,16.3-4.1c2.4-2.4,3.6-8.3,3.6-17.4V922.1z
		 M1687.2,914.5h56.3v3.8c-9.9,0.4-14.8,3.1-14.8,8c0,3.5,3.6,11.6,10.9,24.3l30.2,53.2l21.9-53.2c4.6-11.2,6.9-18.7,6.9-22.5
		c0-5.3-4.3-8.6-13-9.8v-3.8h43.7v3.8c-10.2,1.2-18,8.2-23.3,21l-26.2,63.1c-6.8,16.2-12.4,27.6-16.7,34.4
		c-4.3,6.8-9,11.8-14.1,14.9c-5.1,3.2-10.4,4.8-15.9,4.8c-4.7,0-8.7-1-12-3c-3.2-2-4.9-4.7-4.9-8.2c0-2.5,0.8-4.6,2.5-6.3
		c1.7-1.7,4-2.5,6.9-2.5c2.9,0,6.2,1.2,10.2,3.5c2.7,1.4,4.7,2.2,6,2.2c5.4,0,11.4-5.6,18-16.8l-50.2-88.4
		c-3.6-6.2-6.9-10.6-10.1-13.2c-3.1-2.6-7.3-4.4-12.5-5.2L1687.2,914.5L1687.2,914.5z M1947.6,914.5l0.5,32.4h-3.8
		c-0.3-6.6-1.7-11.8-4.2-15.8c-2.6-4-5.6-6.5-9.3-7.5c-3.7-1.1-8.9-1.6-15.8-1.6h-38.9v105.9c0,9.2,1.2,15,3.5,17.4
		c2.4,2.5,7.8,3.8,16.3,4.1v3.8h-59.4v-3.8c8.5-0.3,13.9-1.6,16.3-4.1c2.4-2.4,3.6-8.3,3.6-17.4v-88.1c0-9.2-1.2-15-3.6-17.4
		c-2.4-2.5-7.8-3.8-16.3-4.1v-3.8H1947.6L1947.6,914.5z M2026.6,1007h-53.7l-9.3,21.7c-2.3,5.4-3.5,9.4-3.5,12.1c0,2.1,1,4,3,5.6
		c2,1.6,6.4,2.6,13,3.1v3.8h-43.7v-3.8c5.8-1,9.5-2.3,11.2-4c3.5-3.3,7.3-9.9,11.5-19.9l48.8-114.2h3.4l48.2,115.4
		c3.9,9.3,7.4,15.3,10.6,18.1c3.2,2.8,7.6,4.3,13.2,4.6v3.8h-54.7v-3.8c5.5-0.3,9.2-1.2,11.2-2.8c2-1.6,2.9-3.5,2.9-5.8
		c0-3-1.4-7.7-4.1-14.2L2026.6,1007L2026.6,1007z M2023.5,999.5l-23.4-56l-24,56H2023.5z"/>
</g>
</svg>
